<?xml version="1.0" encoding="utf-8"?>
<!-- Generator: Adobe Illustrator 18.1.1, SVG Export Plug-In . SVG Version: 6.00 Build 0)  -->
<svg version="1.1" id="Слой_1" xmlns="http://www.w3.org/2000/svg" xmlns:xlink="http://www.w3.org/1999/xlink" x="0px" y="0px"
	 viewBox="0 0 256 256" enable-background="new 0 0 256 256" xml:space="preserve">
<rect x="0" fill="#277DAD" width="256" height="256"/>
<path fill="#FFFFFF" d="M146.2,173.2c-12.9-2.7-15.7-5.6-16.6-9.2c0-0.9,0-5.6,1.9-7.5c1.9-2.7,5.6-3.7,9.2-4.6
	c11.1-0.9,17.5,10.2,17.5,10.2l6.5-3.7l6.5-3.7c0-0.9-10.2-20.4-32.3-18.5c-12,0.9-18.5,6.5-21.2,11.1c-5.6,7.5-5.6,17.5-3.7,21.2
	c4.6,12.9,16.6,17.5,28.7,19.4c6.5,1.9,12,4.6,13.9,6.5c0.9,1.9,1.9,4.6,0.9,7.5c-1.9,5.6-7.5,6.5-9.2,6.5
	c-7.5,0.9-18.5-3.7-25-14.8l-13.9,7.5c8.3,16.6,24,23.1,37,23.1h3.7c11.1-0.9,20.4-8.3,23.1-17.5c2.7-9.2,0-16.6-2.7-20.4
	C165.6,179.8,157.3,175.1,146.2,173.2z"/>
<path fill="#FFFFFF" d="M85.8,178.7c3.7-4.6,5.6-9.2,5.6-15.7v-0.9c0-13.9-11.1-25-25-25H32.2V224H72c13.9,0,25-11.1,25-25v-0.9
	C95.9,190.6,92.2,183.3,85.8,178.7z M49.7,153.7h17.5c5.6,0,9.2,4.6,9.2,9.2v0.9c0,5.6-4.6,9.2-9.2,9.2H49.7V153.7z M72,209.1H49.7
	v-19.4H72c4.5-1,9.2,3.7,9.2,10.2C81.2,205.5,76.6,209.1,72,209.1z"/>
</svg>
